<svg height="511pt" viewBox="1 -33 511.9995 511" width="511pt" xmlns="http://www.w3.org/2000/svg"><path d="m245.253906 429.511719-145.257812-145.257813c-11.292969-11.292968-11.292969-29.601562 0-40.890625l209.902344-209.902343c11.289062-11.292969 29.597656-11.292969 40.890624 0l145.257813 145.253906c11.292969 11.292968 11.292969 29.601562 0 40.894531l-209.902344 209.902344c-11.289062 11.289062-29.597656 11.289062-40.890625 0zm0 0" fill="#fcf2d0"/><path d="m302.976562 40.382812-202.980468 202.976563c-11.292969 11.292969-11.292969 29.601563 0 40.894531l145.257812 145.253906c11.292969 11.292969 29.601563 11.292969 40.890625 0l57.890625-57.886718c-72.792968-71.636719-57.28125-239.882813-41.058594-331.238282zm0 0" fill="#f6e3a3"/><path d="m273.472656 194.71875c9.871094-9.867188 25.875-9.867188 35.742188 0 5.015625 5.011719 7.476562 11.609375 7.398437 18.175781 6.566407-.078125 13.160157 2.382813 18.175781 7.394531 9.867188 9.871094 9.867188 25.875 0 35.742188-12.964843 12.964844-41.628906 15.953125-61.097656 7.566406-3.492187-1.503906-6.277344-4.289062-7.78125-7.78125-8.386718-19.46875-5.398437-48.132812 7.5625-61.097656zm0 0" fill="#4e5660"/><path d="m289.417969 187.410156c-5.8125.441406-11.5 2.867188-15.945313 7.308594-12.960937 12.964844-15.949218 41.628906-7.5625 61.097656 1.503906 3.492188 4.289063 6.277344 7.78125 7.78125 6.773438 2.917969 14.65625 4.457032 22.609375 4.679688-4.753906-25.847656-6.742187-53.40625-6.882812-80.867188zm0 0" fill="#383c43"/><path d="m241.839844 362.675781h-205.421875c-15.972657 0-28.917969-12.945312-28.917969-28.917969v-296.84375c0-15.96875 12.945312-28.914062 28.917969-28.914062h205.421875c15.96875 0 28.914062 12.945312 28.914062 28.914062v296.84375c0 15.972657-12.945312 28.917969-28.914062 28.917969zm0 0" fill="#fcf2d0"/><path d="m36.417969 8c-15.972657 0-28.917969 12.945312-28.917969 28.914062v296.84375c0 15.972657 12.945312 28.917969 28.917969 28.917969h119.179687c-68.824218-69.148437-81.621094-244.246093-59.253906-354.675781zm0 0" fill="#f6e3a3"/><path d="m130.667969 140.085938-25.214844 39.90625c-2.0625 3.265624-2.0625 7.425781 0 10.691406l25.214844 39.90625c3.925781 6.214844 12.992187 6.214844 16.921875 0l25.210937-39.90625c2.0625-3.265625 2.0625-7.425782 0-10.691406l-25.210937-39.90625c-3.929688-6.21875-12.996094-6.21875-16.921875 0zm0 0" fill="#e26e7e"/><path d="m106.292969 115.84375c0-8.445312-8.59375-15.289062-19.199219-15.289062s-19.199219 6.84375-19.199219 15.289062 8.59375 15.289062 19.199219 15.289062 19.199219-6.84375 19.199219-15.289062zm0 0" fill="#eda1ab"/><path d="m210.363281 115.84375c0-8.445312-8.597656-15.289062-19.203125-15.289062-10.601562 0-19.199218 6.84375-19.199218 15.289062s8.597656 15.289062 19.199218 15.289062c10.605469 0 19.203125-6.84375 19.203125-15.289062zm0 0" fill="#eda1ab"/><path d="m168.859375 287.0625c-1.921875 0-3.839844-.730469-5.304687-2.195312-2.929688-2.929688-2.929688-7.679688 0-10.609376l7.925781-7.921874c2.929687-2.929688 7.675781-2.929688 10.605469 0 2.929687 2.929687 2.929687 7.679687 0 10.609374l-7.921876 7.921876c-1.464843 1.464843-3.386718 2.195312-5.304687 2.195312zm0 0" fill="#f6e3a3"/><path d="m392.390625 209.328125c-4.140625 0-7.5-3.359375-7.5-7.5v-8.5625c0-4.140625 3.359375-7.5 7.5-7.5 4.144531 0 7.5 3.359375 7.5 7.5v8.5625c0 4.140625-3.355469 7.5-7.5 7.5zm0 0" fill="#f6e3a3"/><path d="m296.296875 318.832031c-4.140625 0-7.5-3.359375-7.5-7.5v-13.984375c0-4.144531 3.359375-7.5 7.5-7.5 4.144531 0 7.5 3.355469 7.5 7.5v13.984375c0 4.140625-3.355469 7.5-7.5 7.5zm0 0" fill="#fcf2d0"/><path d="m210.863281 46.171875h-143.472656c-11.972656 0-21.71875 9.742187-21.71875 21.71875v234.890625c0 11.976562 9.746094 21.71875 21.71875 21.71875h143.472656c11.976563 0 21.71875-9.742188 21.71875-21.71875v-234.890625c0-11.976563-9.742187-21.71875-21.71875-21.71875zm6.71875 256.609375c0 3.707031-3.015625 6.71875-6.71875 6.71875h-143.472656c-3.703125 0-6.714844-3.011719-6.714844-6.71875v-234.890625c0-3.703125 3.011719-6.71875 6.714844-6.71875h143.472656c3.703125 0 6.71875 3.015625 6.71875 6.71875zm112.761719-259.75c-3.003906-3.007812-7.878906-3.007812-10.886719 0-3.949219 3.949219-4.859375 12.679688-2.304687 18.609375.457031 1.0625 1.304687 1.910156 2.371094 2.371094 5.929687 2.554687 14.660156 1.644531 18.609374-2.304688 3.007813-3.007812 3.007813-7.882812 0-10.890625-1.523437-1.523437-3.535156-2.273437-5.535156-2.25.023438-2-.726562-4.007812-2.253906-5.535156zm-292.9375-19.371094c-1.472656-2.332031-4.871094-2.332031-6.34375 0l-9.453125 14.964844c-.773437 1.222656-.773437 2.78125 0 4.007812l9.453125 14.964844c1.472656 2.328125 4.871094 2.328125 6.34375 0l9.453125-14.964844c.773437-1.222656.773437-2.785156 0-4.007812zm239.113281 375.300782c-5.929687-2.554688-14.660156-1.644532-18.609375 2.304687-3.007812 3.003906-3.007812 7.882813 0 10.886719 1.527344 1.527344 3.535156 2.277344 5.535156 2.253906-.023437 2 .726563 4.007812 2.253907 5.535156 3.003906 3.007813 7.878906 3.007813 10.886719 0 3.949218-3.949218 4.859374-12.679687 2.304687-18.609375-.457031-1.066406-1.308594-1.914062-2.371094-2.371093zm224.832031-225.546876-145.257812-145.257812c-14.199219-14.195312-37.300781-14.199219-51.5 0l-26.339844 26.339844v-17.582032c0-20.078124-16.335937-36.414062-36.414062-36.414062h-205.421875c-20.082031 0-36.417969 16.335938-36.417969 36.414062v39.945313c0 4.140625 3.359375 7.5 7.5 7.5s7.5-3.359375 7.5-7.5v-39.945313c0-11.808593 9.609375-21.414062 21.417969-21.414062h205.421875c11.808594 0 21.414062 9.609375 21.414062 21.414062v296.84375c0 11.8125-9.605468 21.417969-21.414062 21.417969h-205.421875c-11.8125 0-21.417969-9.609375-21.417969-21.417969v-221.195312c0-4.140625-3.359375-7.5-7.5-7.5s-7.5 3.359375-7.5 7.5v221.195312c0 20.082032 16.335938 36.417969 36.417969 36.417969h138.890625l64.640625 64.636719c6.878906 6.878906 16.023437 10.667969 25.75 10.667969 9.726562 0 18.871093-3.789063 25.75-10.667969l19.648437-19.648438c2.929688-2.929687 2.929688-7.679687 0-10.605468-2.929687-2.929688-7.679687-2.929688-10.605468 0l-19.652344 19.648437c-4.042969 4.046875-9.421875 6.273438-15.140625 6.273438-5.722657 0-11.097657-2.230469-15.144531-6.273438l-54.03125-54.03125h43.378906l10.4375 10.441407c4.101562 4.101562 9.558594 6.359374 15.359375 6.359374s11.253906-2.261718 15.355469-6.363281l166.09375-166.09375c4.105468-4.101562 6.363281-9.554687 6.363281-15.355469 0-5.800781-2.261719-11.257812-6.363281-15.359374l-101.449219-101.449219c-4.101563-4.101563-9.554688-6.359375-15.355469-6.359375s-11.253906 2.257812-15.355469 6.359375l-36.734375 36.730469v-43.375l36.945313-36.945313c8.351562-8.351563 21.9375-8.351563 30.285156 0l145.257813 145.253906c8.351562 8.351563 8.351562 21.9375 0 30.285157l-165.046876 165.050781c-2.929687 2.929687-2.929687 7.675781 0 10.605469 1.464844 1.464843 3.386719 2.195312 5.304688 2.195312s3.839844-.730469 5.304688-2.195312l165.046874-165.046876c14.199219-14.199218 14.199219-37.300781 0-51.5zm-223.097656 27.175782c.175782-.191406.351563-.394532.523438-.566406 6.929687-6.929688 18.203125-6.929688 25.136718 0 3.410157 3.414062 5.253907 7.953124 5.199219 12.78125-.027343 2.023437.765625 3.96875 2.195313 5.394531 1.425781 1.429687 3.371094 2.242187 5.390625 2.199219 4.816406-.058594 9.371093 1.789062 12.78125 5.195312 6.929687 6.929688 6.929687 18.207031 0 25.136719-10.1875 10.1875-34.160157 13.179687-51.226563 6.628906zm47.339844-107.625c1.269531-1.269532 2.957031-1.96875 4.75-1.96875s3.480469.699218 4.75 1.964844l101.449219 101.453124c1.269531 1.269532 1.96875 2.957032 1.96875 4.75 0 1.792969-.699219 3.480469-1.96875 4.75l-166.09375 166.09375c-1.269531 1.269532-2.957031 1.96875-4.75 1.96875-1.796875 0-3.480469-.699218-4.75-1.96875l-3.398438-3.398437c12.234375-5.878906 20.703125-18.394531 20.703125-32.851563v-60.632812c6.375 1.796875 13.160156 2.6875 19.917969 2.6875 16.390625 0 32.558594-5.117188 41.917969-14.476562 12.777344-12.777344 12.777344-33.570313 0-46.347657-4.625-4.625-10.367188-7.6875-16.625-8.945312-1.257813-6.257813-4.320313-12.003907-8.945313-16.625-9.789062-9.789063-24.277343-12.070313-36.265625-6.863281v-42.253907zm-171.664062 43.113281c-3.226563-5.105469-8.761719-8.15625-14.800782-8.15625-6.042968 0-11.574218 3.050781-14.800781 8.15625l-25.214844 39.90625c-3.585937 5.679687-3.585937 13.023437 0 18.703125l25.214844 39.90625c3.226563 5.109375 8.757813 8.15625 14.800781 8.15625 6.042969 0 11.574219-3.046875 14.800782-8.15625l25.210937-39.90625c3.589844-5.679688 3.589844-13.023438 0-18.703125zm12.53125 50.597656-25.210938 39.90625c-.644531 1.019531-1.605469 1.167969-2.121094 1.167969s-1.480468-.152344-2.121094-1.167969l-25.210937-39.90625c-.515625-.8125-.515625-1.863281 0-2.679687l25.210937-39.902344c.640626-1.019531 1.605469-1.167969 2.121094-1.167969s1.476563.152344 2.121094 1.167969l25.210938 39.902344c.511718.816406.511718 1.867187 0 2.679687zm-27.332032-73.378906c6.292969 0 12.28125-2.726563 16.421875-7.480469 2.71875-3.121094 2.394531-7.859375-.726562-10.582031-3.125-2.71875-7.863281-2.394531-10.582031.726563-1.292969 1.484374-3.15625 2.335937-5.113282 2.335937-1.957031 0-3.824218-.851563-5.117187-2.335937-2.71875-3.121094-7.457031-3.445313-10.582031-.726563-3.121094 2.722656-3.445313 7.460937-.726563 10.582031 4.144531 4.753906 10.128906 7.480469 16.425781 7.480469zm40.84375-26.988281c-4.140625 0-7.5 3.359375-7.5 7.503906v6.777344c0 4.144531 3.359375 7.5 7.5 7.5s7.5-3.355469 7.5-7.5v-6.777344c0-4.144531-3.359375-7.503906-7.5-7.503906zm51.421875 245.742187 9.453125 14.964844c1.476563 2.328125 4.875 2.328125 6.347656 0l9.453126-14.964844c.773437-1.222656.773437-2.785156 0-4.007812l-9.453126-14.964844c-1.472656-2.332031-4.871093-2.332031-6.347656 0l-9.453125 14.964844c-.773437 1.222656-.773437 2.785156 0 4.007812zm-125.609375-231.460937v-6.777344c0-4.144531-3.359375-7.503906-7.503906-7.503906-4.140625 0-7.5 3.359375-7.5 7.503906v6.777344c0 4.144531 3.359375 7.5 7.5 7.5 4.144531 0 7.503906-3.355469 7.503906-7.5zm0 0"/></svg>