<svg height="512pt" viewBox="0 -82 512.00102 512" width="512pt" xmlns="http://www.w3.org/2000/svg"><path d="m273.882812 143.085938-119.503906-107.144532c-14.421875-12.929687-37.425781-5.480468-41.53125 13.445313l-26.296875 121.207031zm0 0" fill="#f7ef87"/><path d="m238.121094 143.085938 119.503906-107.144532c14.417969-12.929687 37.421875-5.480468 41.527344 13.445313l26.296875 121.207031zm0 0" fill="#efd176"/><path d="m423.484375 270.976562 77.378906-161.339843c15.429688-32.167969-21.828125-63.925781-51.148437-43.59375l-59.738282 41.429687c-9.074218 6.292969-21.394531 4.957032-28.90625-3.136718l-79.597656-85.730469c-13.75-14.808594-37.191406-14.808594-50.945312 0l-79.59375 85.730469c-7.515625 8.089843-19.832032 9.429687-28.90625 3.136718l-59.746094-41.429687c-29.316406-20.332031-66.574219 11.421875-51.148438 43.59375l77.382813 161.339843zm0 0" fill="#f7ef87"/><path d="m180.625 72.355469-29.691406 31.980469c-7.515625 8.089843-19.835938 9.429687-28.910156 3.136718l-59.742188-41.429687c-29.316406-20.332031-66.574219 11.425781-51.148438 43.59375l77.382813 161.339843h132.714844c-34.71875-48.917968-47.8125-132.207031-40.605469-198.621093zm0 0" fill="#efd176"/><g fill="#eda1ab"><path d="m435.238281 328.179688c-118.886719 16.984374-239.589843 16.984374-358.476562 0-18.402344-2.628907-32.070313-18.386719-32.070313-36.972657 0-22.730469 20.132813-40.191406 42.632813-36.976562 111.882812 15.980469 225.46875 15.980469 337.351562 0 22.5-3.214844 42.632813 14.246093 42.632813 36.976562 0 18.585938-13.667969 34.347657-32.070313 36.972657zm0 0"/><path d="m198.308594 213.730469c0-14.835938-15.105469-26.863281-33.738282-26.863281-18.628906 0-33.734374 12.027343-33.734374 26.863281 0 14.839843 15.105468 26.867187 33.734374 26.867187 18.632813 0 33.738282-12.027344 33.738282-26.867187zm0 0"/><path d="m381.164062 213.730469c0-14.835938-15.105468-26.863281-33.738281-26.863281-18.628906 0-33.734375 12.027343-33.734375 26.863281 0 14.839843 15.105469 26.867187 33.734375 26.867187 18.632813 0 33.738281-12.027344 33.738281-26.867187zm0 0"/></g><path d="m290.335938 95.183594c0-21.078125-15.371094-38.164063-34.335938-38.164063s-34.335938 17.085938-34.335938 38.164063 15.371094 38.167968 34.335938 38.167968 34.335938-17.089843 34.335938-38.167968zm0 0" fill="#6fce91"/><path d="m78.75 145.828125c-8.910156-19.101563-30.0625-28.089844-47.25-20.078125-17.1875 8.015625-23.898438 29.996094-14.988281 49.101562 8.90625 19.101563 30.058593 28.089844 47.246093 20.078126 17.1875-8.015626 23.898438-30 14.992188-49.101563zm0 0" fill="#3cb767"/><path d="m433.246094 145.839844c-8.90625 19.101562-2.195313 41.085937 14.992187 49.097656 17.1875 8.015625 38.339844-.972656 47.246094-20.078125 8.90625-19.101563 2.195313-41.085937-14.988281-49.097656-17.1875-8.015625-38.339844.976562-47.25 20.078125zm0 0" fill="#6fce91"/><path d="m76.761719 328.179688c56.386719 8.058593 113.183593 12.285156 170 12.699218-31.277344-17.339844-37.28125-57.203125-12.28125-74.859375-49.1875-.886719-98.335938-4.816406-147.15625-11.789062-22.5-3.214844-42.632813 14.246093-42.632813 36.976562 0 18.585938 13.667969 34.347657 32.070313 36.972657zm0 0" fill="#e26e7e"/><path d="m103.527344 298.195312c-1.921875 0-3.839844-.730468-5.304688-2.195312-2.929687-2.929688-2.929687-7.675781 0-10.605469l4.003906-4.003906c2.929688-2.929687 7.679688-2.929687 10.605469 0 2.929688 2.929687 2.929688 7.675781 0 10.605469l-4.003906 4.003906c-1.464844 1.464844-3.382813 2.195312-5.300781 2.195312zm0 0" fill="#eda1ab"/><path d="m207.289062 317.378906c-1.917968 0-3.839843-.730468-5.304687-2.195312l-4-4.003906c-2.929687-2.929688-2.929687-7.675782 0-10.605469 2.929687-2.925781 7.675781-2.925781 10.605469 0l4.003906 4.003906c2.929688 2.929687 2.929688 7.679687 0 10.605469-1.464844 1.464844-3.386719 2.195312-5.304688 2.195312zm0 0" fill="#eda1ab"/><path d="m308.167969 306.863281c-1.921875 0-3.839844-.730469-5.304688-2.195312-2.925781-2.929688-2.925781-7.679688.003907-10.605469l4.003906-4.003906c2.925781-2.929688 7.675781-2.929688 10.605468 0 2.925782 2.929687 2.925782 7.675781-.003906 10.605468l-4.003906 4.003907c-1.464844 1.464843-3.382812 2.195312-5.300781 2.195312zm0 0" fill="#e26e7e"/><path d="m400.234375 309.644531c-1.921875 0-3.839844-.734375-5.304687-2.199219l-4.003907-4.003906c-2.925781-2.929687-2.925781-7.675781.003907-10.605468 2.929687-2.929688 7.675781-2.925782 10.601562 0l4.003906 4.003906c2.929688 2.929687 2.929688 7.679687 0 10.605468-1.464844 1.464844-3.382812 2.199219-5.300781 2.199219zm0 0" fill="#e26e7e"/><path d="m496.9375 62.445312c-15.042969-12.820312-35.253906-13.828124-51.496094-2.566406l-31.585937 21.90625-3.902344-17.992187c-.878906-4.046875-4.871094-6.617188-8.917969-5.738281-4.046875.875-6.617187 4.871093-5.738281 8.917968l5.21875 24.0625-14.8125 10.273438c-5.96875 4.140625-14.195313 3.246094-19.136719-2.074219l-31.03125-33.417969 27.09375-24.289062c7.082032-6.351563 16.042969-5.339844 21.777344-1.519532 3.449219 2.296876 8.101562 1.363282 10.398438-2.085937 2.296874-3.445313 1.363281-8.101563-2.085938-10.394531-12.480469-8.3125-28.972656-7.148438-40.101562 2.832031l-27.289063 24.464844-38.359375-41.316407c-7.96875-8.585937-19.257812-13.507812-30.96875-13.507812s-23 4.921875-30.96875 13.507812l-38.363281 41.316407-27.285157-24.464844c-8.78125-7.875-20.722656-10.40625-31.949218-6.773437-11.222656 3.632812-19.414063 12.6875-21.917969 24.214843l-7.371094 33.984375-31.585937-21.902344c-16.238282-11.261718-36.453125-10.257812-51.496094 2.5625-15.0390625 12.816407-19.234375 32.617188-10.691406 50.433594l8.90625 18.570313c-9.113282 12.585937-11.058594 30.488281-3.558594 46.570312 7.664062 16.433594 23.117188 26.546875 38.976562 27.277344l20.582032 42.914063c-6.054688 1.796874-11.734375 4.871093-16.621094 9.109374-9.828125 8.527344-15.464844 20.875-15.464844 33.882813 0 22.175781 16.554688 41.265625 38.507813 44.402344 6.789062.96875 13.6875 1.898437 20.507812 2.757812 4.117188.519531 7.863281-2.390625 8.382813-6.5.519531-4.109375-2.390625-7.859375-6.5-8.378906-6.742188-.851563-13.558594-1.769531-20.269532-2.726563-14.609374-2.089843-25.628906-14.792968-25.628906-29.554687 0-8.65625 3.75-16.878906 10.292969-22.550781 6.539063-5.671875 15.207031-8.226563 23.78125-7 112.628906 16.089844 226.84375 16.089844 339.472656 0 8.570313-1.222656 17.238281 1.328125 23.78125 7 6.539063 5.671875 10.289063 13.894531 10.289063 22.550781 0 14.761719-11.019532 27.464844-25.628906 29.554687-99.238282 14.171876-200.144532 16.449219-299.917969 6.765626-4.128907-.402344-7.789063 2.617187-8.1875 6.738281-.402344 4.125 2.617187 7.789062 6.738281 8.1875 40.917969 3.972656 82.019531 5.957031 123.125 5.957031 60.324219 0 120.644531-4.273438 180.363281-12.804688 21.953125-3.136718 38.507813-22.222656 38.507813-44.398437 0-13.007813-5.636719-25.359375-15.464844-33.882813-4.886719-4.238281-10.5625-7.316406-16.621094-9.113281l20.582032-42.914062c15.859374-.730469 31.316406-10.839844 38.980468-27.277344 7.5-16.082031 5.554688-33.984375-3.5625-46.570313l8.90625-18.566406c8.542969-17.816406 4.347656-37.617187-10.691406-50.433594zm-376.761719-11.46875c1.355469-6.246093 5.796875-11.152343 11.878907-13.121093 6.085937-1.972657 12.558593-.597657 17.316406 3.667969l27.09375 24.292968-31.03125 33.417969c-4.941406 5.320313-13.164063 6.214844-19.136719 2.074219l-14.8125-10.273438zm-96.863281 120.707032c-7.144531-15.328125-2.050781-32.882813 11.363281-39.136719 3.238281-1.511719 6.667969-2.226563 10.113281-2.226563 10.816407 0 21.746094 7.054688 27.167969 18.675782 3.523438 7.558594 4.203125 15.851562 1.914063 23.351562-2.203125 7.210938-6.917969 12.820313-13.277344 15.785156-13.410156 6.253907-30.136719-1.125-37.28125-16.449218zm465.378906-.003906c-5.804687 12.453124-17.933594 19.660156-29.472656 18.570312-.003906 0-.003906 0-.007812 0-2.660157-.25-5.289063-.945312-7.804688-2.117188-6.359375-2.964843-11.074219-8.570312-13.277344-15.785156-2.289062-7.5-1.609375-15.792968 1.914063-23.347656 7.148437-15.328125 23.875-22.707031 37.28125-16.453125 13.414062 6.253906 18.511719 23.808594 11.367187 39.132813zm5.414063-65.285157-6.925781 14.433594c-1.128907-.675781-2.296876-1.304687-3.515626-1.875-20.90625-9.746094-46.570312.886719-57.210937 23.707031-5.09375 10.921875-6.042969 23.019532-2.667969 34.070313 3.460938 11.332031 11.019532 20.210937 21.28125 24.996093.914063.425782 1.835938.800782 2.765625 1.148438l-20.910156 43.601562c-1.101563.074219-2.203125.171876-3.304687.332032-111.222657 15.886718-224.011719 15.886718-335.230469 0-1.101563-.160156-2.207031-.257813-3.308594-.332032l-20.910156-43.601562c.929687-.347656 1.851562-.722656 2.765625-1.148438 10.265625-4.785156 17.820312-13.664062 21.28125-24.996093 3.375-11.050781 2.425781-23.148438-2.667969-34.070313-10.640625-22.820312-36.304687-33.453125-57.210937-23.707031-1.21875.570313-2.386719 1.199219-3.515626 1.875l-6.921874-14.433594c-6.699219-13.964843-.472657-26.253906 6.894531-32.535156 7.367187-6.28125 20.488281-10.480469 33.21875-1.652344l40.742187 28.253907c.015625.011718.035156.023437.054688.035156l18.941406 13.136718c12.0625 8.367188 28.691406 6.5625 38.679688-4.195312l79.59375-85.726562c5.21875-5.621094 12.3125-8.714844 19.980468-8.714844 7.664063 0 14.761719 3.097656 19.976563 8.714844l79.59375 85.726562c9.988281 10.757812 26.613281 12.5625 38.675781 4.195312l18.945312-13.136718c.019532-.011719.035157-.023438.054688-.035156l40.742188-28.257813c12.730468-8.824219 25.847656-4.625 33.214843 1.65625 7.367188 6.28125 13.59375 18.566406 6.898438 32.535156zm-238.105469-56.875c-23.066406 0-41.835938 20.488281-41.835938 45.664063 0 25.179687 18.769532 45.664062 41.835938 45.664062s41.835938-20.484375 41.835938-45.664062c0-25.175782-18.769532-45.664063-41.835938-45.664063zm0 76.332031c-14.796875 0-26.835938-13.757812-26.835938-30.667968 0-16.90625 12.039063-30.664063 26.835938-30.664063s26.835938 13.757813 26.835938 30.664063c0 16.910156-12.039063 30.667968-26.835938 30.667968zm71.765625 41.667969c-4.140625 0-7.5 3.359375-7.5 7.5v11.910157c0 4.144531 3.359375 7.5 7.5 7.5 4.144531 0 7.5-3.355469 7.5-7.5v-11.910157c0-4.140625-3.355469-7.5-7.5-7.5zm-47.917969 14.285157c-3.125-2.71875-7.859375-2.394532-10.582031.726562-3.347656 3.84375-8.183594 6.050781-13.265625 6.050781s-9.917969-2.207031-13.269531-6.050781c-2.71875-3.121094-7.457031-3.445312-10.578125-.726562-3.125 2.722656-3.449219 7.457031-.726563 10.582031 6.195313 7.113281 15.152344 11.191406 24.574219 11.191406 9.417969 0 18.375-4.078125 24.574219-11.191406 2.722656-3.121094 2.394531-7.859375-.726563-10.582031zm-95.613281-14.285157c-4.144531 0-7.5 3.359375-7.5 7.5v11.910157c0 4.144531 3.355469 7.5 7.5 7.5 4.140625 0 7.496094-3.355469 7.496094-7.5v-11.910157c0-4.140625-3.355469-7.5-7.496094-7.5zm0 0"/></svg>