<svg height="512pt" viewBox="-51 0 512 512" width="512pt" xmlns="http://www.w3.org/2000/svg"><path d="m39.78125 164.941406v128.40625c0 11.828125 9.585938 21.414063 21.414062 21.414063 11.824219 0 21.414063-9.585938 21.414063-21.414063v-49.359375c0-8.601562 6.972656-15.578125 15.574219-15.578125 8.601562 0 15.574218 6.972656 15.574218 15.578125v13.941407c0 11.828124 9.589844 21.414062 21.414063 21.414062 11.828125 0 21.414063-9.585938 21.414063-21.414062v-99.109376zm0 0" fill="#00d2ce"/><path d="m39.78125 215.28125c14.273438-6.839844 35.1875-7.222656 56.113281-4.039062 23.269531 3.539062 47.550781.195312 60.695313-2.300782v-50.121094l-116.808594 6.121094zm0 0" fill="#00bdba"/><path d="m291.285156 185.378906h-214.464844c-38.285156 0-69.320312-31.035156-69.320312-69.320312v-39.238282c0-38.285156 31.035156-69.320312 69.320312-69.320312h214.464844c38.285156 0 69.320313 31.035156 69.320313 69.320312v39.238282c0 38.285156-31.035157 69.320312-69.320313 69.320312zm0 0" fill="#f9ee80"/><path d="m76.015625 116.058594v-39.238282c0-38.285156 31.035156-69.320312 69.320313-69.320312h-68.515626c-38.285156 0-69.320312 31.035156-69.320312 69.320312v39.238282c0 38.285156 31.035156 69.320312 69.320312 69.320312h68.515626c-38.285157 0-69.320313-31.035156-69.320313-69.320312zm0 0" fill="#f4e74d"/><path d="m360.605469 76.820312v105.285157c0 11.667969-7.382813 22.058593-18.402344 25.894531l-147.964844 51.523438c-18.648437 6.492187-31.140625 24.070312-31.140625 43.816406v112.550781h41.910156v-95.898437c0-11.738282 7.472657-22.175782 18.585938-25.957032l147.476562-50.195312c18.804688-6.398438 31.449219-24.058594 31.449219-43.921875v-81.183594c0-23.148437-18.765625-41.914063-41.914062-41.914063zm0 0" fill="#8697a6"/><path d="m184.054688 504.5c-20.21875 0-36.609376-16.390625-36.609376-36.609375v-78.1875h73.214844v78.1875c0 20.21875-16.390625 36.609375-36.605468 36.609375zm0 0" fill="#ffbe73"/><path d="m147.445312 467.890625c0 15.925781 10.175782 29.480469 24.375 34.515625-3.746093-11.292969-4.667968-22.90625-4.285156-33.214844.652344-17.484375 12.328125-32.589844 28.914063-38.15625 9.332031-3.128906 17.792969-7.433594 24.210937-11.167968v-30.164063h-73.214844zm0 0" fill="#ffa93f"/><path d="m210.667969 407.785156h-53.230469c-12.296875 0-22.261719-9.96875-22.261719-22.261718 0-12.296876 9.964844-22.261719 22.261719-22.261719h53.230469c12.296875 0 22.261719 9.964843 22.261719 22.261719.003906 12.296874-9.964844 22.261718-22.261719 22.261718zm0 0" fill="#a5b1bd"/><path d="m76.820312 185.378906h214.464844c34.71875 0 63.476563-25.523437 68.53125-58.832031-87.605468-14.0625-168.460937 32.273437-248.921875 7.460937-69.773437-21.515624-103.394531-17.949218-103.394531-17.949218 0 38.285156 31.035156 69.320312 69.320312 69.320312zm0 0" fill="#76e7e7"/><path d="m7.5 116.058594c0 38.285156 31.035156 69.320312 69.320312 69.320312h68.515626c-35.382813 0-64.574219-26.523437-68.800782-60.761718-46.492187-10.953126-69.035156-8.558594-69.035156-8.558594zm0 0" fill="#2eddda"/><path d="m184.054688 107.261719c-15.523438 0-28.101563-12.578125-28.101563-28.097657v-20.429687c0-4.238281 3.433594-7.671875 7.671875-7.671875h40.859375c4.234375 0 7.667969 3.433594 7.667969 7.671875v20.429687c0 15.519532-12.578125 28.097657-28.097656 28.097657zm0 0" fill="#454545"/><path d="m120.03125 79.160156c0-13.179687-13.421875-23.867187-29.972656-23.867187-16.554688 0-29.972656 10.6875-29.972656 23.867187 0 13.183594 13.417968 23.871094 29.972656 23.871094 16.550781 0 29.972656-10.6875 29.972656-23.871094zm0 0" fill="#ffb3dd"/><path d="m308.023438 79.160156c0-13.179687-13.421876-23.867187-29.972657-23.867187-16.554687 0-29.976562 10.6875-29.976562 23.867187 0 13.183594 13.421875 23.871094 29.976562 23.871094 16.550781 0 29.972657-10.6875 29.972657-23.871094zm0 0" fill="#ffb3dd"/><path d="m272.210938 58.558594v-12.449219c0-4.140625-3.359376-7.5-7.5-7.5-4.144532 0-7.5 3.359375-7.5 7.5v12.449219c0 4.144531 3.355468 7.5 7.5 7.5 4.140624 0 7.5-3.355469 7.5-7.5zm0 0"/><path d="m110.894531 58.558594v-12.449219c0-4.140625-3.355469-7.5-7.5-7.5-4.140625 0-7.5 3.359375-7.5 7.5v12.449219c0 4.144531 3.359375 7.5 7.5 7.5 4.144531 0 7.5-3.355469 7.5-7.5zm0 0"/><path d="m219.652344 79.164062v-20.429687c0-8.367187-6.804688-15.171875-15.167969-15.171875h-40.859375c-8.367188 0-15.171875 6.804688-15.171875 15.171875v20.429687c0 19.628907 15.972656 35.597657 35.601563 35.597657 19.628906 0 35.597656-15.96875 35.597656-35.597657zm-56.199219 0v-20.429687c0-.09375 41.199219-.09375 41.199219 0v20.429687c0 11.359376-9.242188 20.601563-20.601563 20.601563-11.355469-.003906-20.597656-9.242187-20.597656-20.601563zm0 0"/><path d="m367.777344 69.847656c-3.539063-39.101562-36.484375-69.847656-76.492188-69.847656h-214.464844c-15.914062 0-31.183593 4.824219-44.15625 13.949219-3.386718 2.386719-4.199218 7.0625-1.816406 10.453125 2.382813 3.386718 7.058594 4.203125 10.449219 1.816406 10.433594-7.339844 22.714844-11.21875 35.523437-11.21875h214.464844c34.089844 0 61.820313 27.734375 61.820313 61.820312 0 0-.027344 40.546876-.046875 41.203126-38.980469-4.757813-76.402344 1.421874-112.667969 7.414062-44.144531 7.292969-85.839844 14.183594-127.285156 1.40625-51.640625-15.925781-83.960938-18.382812-98.105469-18.503906v-31.519532c0-10.292968 2.578125-20.480468 7.457031-29.460937 1.976563-3.640625.628907-8.195313-3.011719-10.171875-3.640624-1.976562-8.191406-.625-10.167968 3.011719-6.070313 11.167969-9.277344 23.832031-9.277344 36.621093v39.238282c0 25.765625 12.761719 48.589844 32.28125 62.53125v114.757812c0 15.945313 12.972656 28.914063 28.914062 28.914063 15.941407 0 28.914063-12.96875 28.914063-28.914063v-49.359375c0-4.453125 3.621094-8.078125 8.074219-8.078125s8.078125 3.625 8.078125 8.078125v13.941407c0 15.941406 12.96875 28.914062 28.914062 28.914062 15.941407 0 28.914063-12.972656 28.914063-28.914062v-65.050782h127.195312c25.324219 0 47.820313-12.324218 61.820313-31.28125v20.507813c0 8.464843-5.371094 16.027343-13.371094 18.8125l-147.964844 51.519531c-21.636719 7.535156-36.171875 27.992188-36.171875 50.902344v52.480468c-15.558594.957032-27.925781 13.910157-27.925781 29.703126 0 9.878906 4.84375 18.640624 12.273437 24.058593v58.308594c0 24.324219 19.785157 44.109375 44.105469 44.109375 24.320313 0 44.109375-19.785156 44.109375-44.109375v-58.308594c7.429688-5.417969 12.269532-14.179687 12.269532-24.058593 0-15.792969-12.363282-28.746094-27.921876-29.703126v-35.828124c0-8.53125 5.425782-16.109376 13.503907-18.859376l84.929687-28.902343c3.921875-1.335938 6.019532-5.597657 4.683594-9.519531-1.335938-3.921876-5.601562-6.015626-9.515625-4.683594l-84.929687 28.90625c-14.160157 4.816406-23.671876 18.101562-23.671876 33.058594v35.769531h-26.910156v-52.421875c0-16.535156 10.488282-31.296875 26.101563-36.734375l147.96875-51.519531c14.019531-4.882813 23.4375-18.136719 23.4375-32.980469v-96.960938c15.378906 3.429688 26.910156 17.191407 26.910156 33.589844v81.183594c0 16.660156-10.59375 31.457031-26.363281 36.824219l-34.371094 11.699218c-3.921875 1.332032-6.015625 5.59375-4.683594 9.515625 1.335938 3.921875 5.597656 6.015625 9.515625 4.683594l34.371094-11.699219c21.851563-7.433594 36.53125-27.9375 36.53125-51.019531v-81.1875c.003906-24.8125-18.378906-45.402344-42.238281-48.886719zm-154.617188 398.042969c0 16.050781-13.058594 29.109375-29.105468 29.109375-16.050782 0-29.109376-13.058594-29.109376-29.109375v-52.714844c.824219.066407 57.394532.066407 58.214844 0zm12.273438-82.367187c0 8.140624-6.625 14.761718-14.765625 14.761718h-53.230469c-8.140625 0-14.765625-6.621094-14.765625-14.761718 0-8.140626 6.625-14.765626 14.765625-14.765626h53.230469c8.140625 0 14.765625 6.625 14.765625 14.765626zm-76.34375-127.59375c0 7.671874-6.242188 13.914062-13.914063 13.914062s-13.914062-6.242188-13.914062-13.914062v-13.941407c0-12.726562-10.355469-23.078125-23.078125-23.078125s-23.074219 10.355469-23.074219 23.078125v49.359375c0 7.671875-6.242187 13.914063-13.914063 13.914063-7.671874 0-13.914062-6.242188-13.914062-13.914063v-106.382812c9.097656 3.804687 19.074219 5.914062 29.539062 5.914062h72.269532zm142.195312-80.050782h-214.464844c-31.621093 0-57.757812-23.867187-61.375-54.535156 12.949219.171875 43.652344 2.539062 93.242188 17.832031 18.308594 5.644531 36.710938 7.734375 55.078125 7.730469 26.589844 0 53.097656-4.378906 79.074219-8.667969 35.039062-5.792969 71.195312-11.757812 107.929687-7.378906-7.339843 25.945313-31.21875 45.019531-59.484375 45.019531zm0 0"/></svg>